<?xml version="1.0" encoding="utf-8"?>
<!-- Svg Vector Icons : http://www.onlinewebfonts.com/icon -->
<!DOCTYPE svg PUBLIC "-//W3C//DTD SVG 1.1//EN" "http://www.w3.org/Graphics/SVG/1.1/DTD/svg11.dtd">
<svg version="1.1" xmlns="http://www.w3.org/2000/svg" xmlns:xlink="http://www.w3.org/1999/xlink" x="0px" y="0px" viewBox="0 0 1000 1000" enable-background="new 0 0 1000 1000" xml:space="preserve">
<metadata> Svg Vector Icons : http://www.onlinewebfonts.com/icon </metadata>
<g><path d="M932,525.9c-1.4,1.4-3,2.7-4.6,3.8l-450,449.8c-14,14-36.9,14-50.9,0c-14-14-14-36.9,0-50.9l428.7-428.6L426.5,71.4c-14-14-14-36.9,0-50.9c14-14,36.9-14,50.9,0l450,450c1.6,1.1,3.2,2.4,4.6,3.8c7.1,7.1,10.6,16.5,10.5,25.8C942.6,509.4,939.1,518.8,932,525.9L932,525.9z"/><path d="M573.5,474.2c7.1,7.1,10.6,16.5,10.5,25.8c0.2,9.4-3.3,18.7-10.5,25.8c-1.4,1.4-3,2.7-4.6,3.8l-450,449.8c-14,14-36.9,14-50.9,0c-14-14-14-36.9,0-50.9l428.7-428.6L68,71.4c-14-14-14-36.9,0-50.9c14-14,36.9-14,50.9,0l450,450C570.4,471.5,572,472.8,573.5,474.2L573.5,474.2z"/></g>
</svg>